<?xml version="1.0" encoding="UTF-8"?>
<svg id="Layer_4" xmlns="http://www.w3.org/2000/svg" viewBox="0 0 505 457.83">
  <defs>
    <style>
      .cls-1 {
        fill: #006cff;
      }

      .cls-2 {
        fill: #023fff;
      }

      .cls-3 {
        fill: #fff;
      }

      .cls-4 {
        fill: #fb0;
      }

      .cls-5 {
        fill: #0500bf;
      }

      .cls-6 {
        fill: #f2f2f2;
      }

      .cls-7 {
        fill: #eeb715;
      }

      .cls-8 {
        fill: none;
        stroke: #0500bf;
        stroke-miterlimit: 10;
        stroke-width: 2px;
      }
    </style>
  </defs>
  <circle class="cls-6" cx="252.5" cy="228.92" r="225.37"/>
  <path class="cls-8" d="M343.03,103.52l-75.59,43.13M285.02,73.57l-100.18,58.46M220.78,144.62l14.79-8.52v-32.5M187.4,364.22l85.35-57.6M240.08,393.86l86.03-57.19M287.63,329.23l-12.43,8.25,2,31.69M199.75,103.51l-50.16,27.67M143.47,128c-3.95-.08-7.21,3.06-7.29,7.01-.08,3.95,3.06,7.21,7.01,7.29,3.95.08,7.21-3.06,7.29-7.01.08-3.95-3.06-7.21-7.01-7.29ZM206.18,92.91c-3.95-.08-7.21,3.06-7.29,7.01-.08,3.95,3.06,7.21,7.01,7.29,3.95.08,7.21-3.06,7.29-7.01.08-3.95-3.06-7.21-7.01-7.29Z"/>
  <path class="cls-2" d="M252.5,3.54C128.05,3.54,27.13,104.47,27.13,228.92s100.92,225.37,225.37,225.37,225.37-100.92,225.37-225.37S377,3.54,252.5,3.54ZM433.64,127.48c-.17,1.31.34,2.75-.84,3.87-.14.13,0,.54-.02.82-.28,5.34-.51,10.68-.86,16.01-.12,1.85-.51,3.69-.82,5.53-.29,1.7.69,3.51-.72,5.19-.48.57-.19,1.89-.09,2.86.62,6.08-1.26,12.05-.85,18.11-1.33,2.72-.77,5.63-.82,8.46-.03,1.89-1.18,3.51-.95,5.54.2,1.8.74,3.85-.73,5.53-.14.16-.01.54-.02.82-.07,3.12.38,6.29-.84,9.3.65,5.39-1.17,10.65-.83,16.01.14,2.19-1.21,4.1-.91,6.37.28,2.2.55,4.61-.06,6.67-.8,2.72-.54,5.39-.75,8.08-.11,1.44-.61,2.84-.79,4.27-.16,1.32.25,2.7-.82,3.88-.28.31-.03,1.08-.04,1.64-.03,1.61.11,3.18-.8,4.71-1.38,2.33-.94,5.14-1.57,7.71-.6,2.4-1.3,4.81-1.77,7.25-.65,3.35-1.76,6.58-2.72,9.81-.95,3.19-1.9,6.48-3.26,9.54-2.95,6.61-5.24,13.55-8.82,19.83-2.78,4.87-5.03,10.02-8.38,14.63-2.14,2.94-3.97,6.17-6,9.24-2.06,3.12-4.4,6-6.6,8.99-3.57,4.84-7.64,9.26-11.76,13.64-1.85,1.96-3.43,4.25-5.44,6.08-4.96,4.51-9.81,9.16-15.06,13.31-8.2,6.49-17.01,12.19-25.67,18.05-2.15,1.46-4.11,3.22-6.54,4.39-2.48,1.19-4.49,3.31-6.8,4.89-2.16,1.48-4.47,2.73-6.65,4.18-12.6,8.41-24.9,17.26-37.78,25.27-3.26,2.03-6.26,4.49-9.37,6.76-.69.51-1.35,1.06-2.02,1.6h-6.71c-7.6-6.3-16.25-11.09-24.28-16.77-4.85-3.43-9.79-6.73-14.72-10.05-7.1-4.79-14.24-9.53-21.34-14.32-4.93-3.32-9.75-6.79-14.75-9.99-6.7-4.28-12.95-9.19-19.47-13.73-1.98-1.38-3.67-3.21-5.56-4.77-4.34-3.61-8.51-7.47-12.43-11.54-4.45-4.62-8.81-9.38-12.74-14.44-5.11-6.6-9.83-13.51-14.56-20.39-1.54-2.23-2.6-4.79-3.9-7.19-1.6-2.97-3.37-5.87-4.79-8.93-3.06-6.56-6.2-13.07-8.56-19.96-1.13-3.28-2.49-6.53-3.52-9.86-1.15-3.73-1.98-7.57-3.09-11.31-.46-1.55-.73-3.08-.88-4.69-.14-1.51-.85-2.98-1.41-4.43-.58-1.49.49-3.34-1.03-4.61-.28-2.96-.77-5.92-.79-8.88-.03-4.11-1.49-8.1-.89-12.24-1.46-2.26-.75-4.79-.8-7.21-.04-1.9-1.28-3.51-.94-5.54.3-1.77.52-3.79-.04-5.41-1.03-2.98-.51-5.95-.76-8.92-.15-1.71-.65-3.4-.78-5.11-.14-1.81.46-3.82-.14-5.41-1.02-2.71-.62-5.39-.7-8.09-.07-2.16-1.22-4.09-.95-6.37.23-1.95.65-4.11-.75-5.94-.07-.09,0-.27,0-.41-.28-5.06-.76-10.12-.74-15.18,0-2.11-.88-3.92-.98-5.94-.1-1.99.44-3.96-.66-6.02-.7-1.3-.15-3.29-.13-4.96.07-5.5-1.43-10.91-.84-16.44-1.85-2.74-.27-6.02-1.54-9.01-1.13-2.67,1.02-5.76,4.15-7.51,6.02-3.36,12.02-6.75,18.07-10.06,5.69-3.12,11.5-6.04,17.13-9.28,5.53-3.18,11.11-6.23,16.73-9.25,5.61-3.02,11.14-6.18,16.73-9.23,5.59-3.05,11.17-6.13,16.74-9.22,5.57-3.09,11.15-6.17,16.75-9.21,5.71-3.1,11.44-6.17,17.11-9.32,5.34-2.97,10.67-6,16.04-8.93,5.81-3.17,11.63-6.36,17.44-9.52,5.48-2.99,10.95-6.03,16.37-9.13,2.49-1.42,5.02-2.75,7.68-4.2h4.1c3.31,1.93,6.63,4,10.07,5.85,5.04,2.71,10.08,5.43,15.06,8.25,3.6,2.04,7.23,4.1,10.92,6,4.52,2.32,9.05,4.61,13.28,7.45,1.38.92,3.09,1.33,4.56,2.13,6.52,3.51,13.04,7.03,19.52,10.62,5.47,3.03,10.86,6.19,16.33,9.21,5.69,3.14,11.44,6.14,17.14,9.25,5.59,3.05,11.16,6.15,16.74,9.23,5.58,3.08,11.16,6.14,16.73,9.24,5.68,3.15,11.48,6.1,17.1,9.33,5.31,3.05,10.85,5.69,16.02,8.97,2.24,1.43,4.44,2.93,6.47,4.29-.2,2.36,1.41,3.96.85,5.97-.39,1.39-.65,2.83-.84,4.26ZM433.63,117.25c-2.03-1.35-4.23-2.86-6.47-4.29-5.17-3.29-10.71-5.92-16.02-8.97-5.62-3.23-11.42-6.18-17.1-9.33-5.57-3.09-11.15-6.16-16.73-9.24-5.58-3.08-11.14-6.18-16.74-9.23-5.7-3.11-11.46-6.12-17.14-9.25-5.47-3.02-10.86-6.18-16.33-9.21-6.48-3.59-12.99-7.11-19.52-10.62-1.48-.79-3.19-1.2-4.56-2.13-4.24-2.84-8.76-5.12-13.28-7.45-3.69-1.9-7.32-3.96-10.92-6-4.98-2.82-10.02-5.54-15.06-8.25-3.44-1.85-6.77-3.92-10.07-5.85h-4.1c-2.66,1.45-5.19,2.78-7.68,4.2-5.43,3.1-10.89,6.14-16.37,9.13-5.81,3.17-11.62,6.35-17.44,9.52-5.37,2.93-10.69,5.96-16.04,8.93-5.67,3.15-11.4,6.22-17.11,9.32-5.6,3.04-11.17,6.13-16.75,9.21-5.57,3.09-11.15,6.17-16.74,9.22-5.59,3.05-11.13,6.21-16.73,9.23-5.61,3.02-11.2,6.07-16.73,9.25-5.63,3.24-11.44,6.16-17.13,9.28-6.05,3.32-12.05,6.7-18.07,10.06-3.14,1.75-5.28,4.84-4.15,7.51,1.26,3-.31,6.27,1.54,9.01-.59,5.52.91,10.94.84,16.44-.02,1.68-.57,3.66.13,4.96,1.11,2.06.57,4.03.66,6.02.1,2.03.99,3.84.98,5.94-.01,5.06.46,10.12.74,15.18,0,.14-.06.32,0,.41,1.39,1.83.98,3.99.75,5.94-.27,2.28.88,4.21.95,6.37.08,2.69-.32,5.37.7,8.09.6,1.59,0,3.6.14,5.41.13,1.71.64,3.4.78,5.11.26,2.96-.27,5.94.76,8.92.56,1.62.34,3.64.04,5.41-.34,2.02.89,3.64.94,5.54.06,2.41-.65,4.94.8,7.21-.6,4.14.86,8.13.89,12.24.02,2.96.51,5.92.79,8.88,1.52,1.27.45,3.11,1.03,4.61.56,1.45,1.27,2.92,1.41,4.43.15,1.61.42,3.14.88,4.69,1.11,3.75,1.94,7.58,3.09,11.31,1.03,3.33,2.39,6.58,3.52,9.86,2.36,6.89,5.51,13.4,8.56,19.96,1.42,3.06,3.19,5.95,4.79,8.93,1.29,2.4,2.36,4.95,3.9,7.19,4.74,6.88,9.45,13.79,14.56,20.39,3.92,5.07,8.29,9.82,12.74,14.44,3.92,4.07,8.09,7.93,12.43,11.54,1.88,1.57,3.57,3.39,5.56,4.77,6.51,4.54,12.76,9.45,19.47,13.73,5,3.19,9.83,6.67,14.75,9.99,7.1,4.79,14.24,9.53,21.34,14.32,4.93,3.32,9.87,6.61,14.72,10.05,8.03,5.68,16.68,10.47,24.28,16.77h6.71c.67-.53,1.33-1.09,2.02-1.6,3.11-2.27,6.11-4.73,9.37-6.76,12.87-8.01,25.18-16.86,37.78-25.27,2.18-1.45,4.49-2.7,6.65-4.18,2.31-1.58,4.32-3.69,6.8-4.89,2.43-1.17,4.39-2.93,6.54-4.39,8.66-5.86,17.47-11.55,25.67-18.05,5.25-4.15,10.1-8.81,15.06-13.31,2.02-1.83,3.6-4.12,5.44-6.08,4.13-4.38,8.19-8.8,11.76-13.64,2.21-2.99,4.54-5.88,6.6-8.99,2.03-3.07,3.87-6.3,6-9.24,3.35-4.6,5.6-9.76,8.38-14.63,3.58-6.28,5.88-13.22,8.82-19.83,1.36-3.06,2.31-6.35,3.26-9.54.96-3.23,2.07-6.46,2.72-9.81.47-2.44,1.18-4.85,1.77-7.25.64-2.57.19-5.38,1.57-7.71.91-1.53.77-3.1.8-4.71.01-.56-.23-1.33.04-1.64,1.07-1.18.66-2.56.82-3.88.17-1.44.67-2.84.79-4.27.21-2.69-.05-5.36.75-8.08.61-2.06.34-4.47.06-6.67-.29-2.27,1.05-4.18.91-6.37-.34-5.37,1.47-10.63.83-16.01,1.22-3.02.77-6.18.84-9.3,0-.28-.12-.66.02-.82,1.47-1.68.93-3.73.73-5.53-.23-2.02.92-3.64.95-5.54.05-2.84-.51-5.75.82-8.46-.4-6.07,1.47-12.03.85-18.11-.1-.96-.39-2.28.09-2.86,1.41-1.67.43-3.48.72-5.19.31-1.84.7-3.67.82-5.53.35-5.33.59-10.68.86-16.01.01-.28-.12-.69.02-.82,1.18-1.11.67-2.55.84-3.87.19-1.43.45-2.87.84-4.26.55-2.01-1.06-3.61-.85-5.97ZM419.4,131.41c-.32.49-.01,1.37-.05,2.07-.27,5.06-.06,10.21-.99,15.15-.7,3.72-.38,7.35-.7,11.01-.15,1.71-.65,3.4-.79,5.11-.14,1.81.48,3.84-.15,5.4-.99,2.45-.47,4.85-.74,7.25-.2,1.85-.65,3.68-.79,5.53-.14,1.81.46,3.82-.14,5.41-1.12,2.99-.45,5.96-.75,8.92-.2,1.99-.59,3.96-.81,5.95-.21,1.86.47,3.83-.82,5.55-.2.27-.07.82-.02,1.24.61,5.25-.56,10.42-1.05,15.58-.37,3.96-.42,7.89-.65,11.84-.1,1.72-1.14,3.25-.88,5.12.24,1.7-.2,3.4-.64,5.13-.59,2.29-.18,4.77-.9,7.19-1.11,3.77-.78,7.89-2.59,11.52.35,4.24-1.62,8.03-2.69,11.92-.88,3.19-1.77,6.49-3.16,9.58-1.22,2.71-2.38,5.45-3.35,8.26-1.86,5.37-6.1,14.1-8.9,18.56-1.31,2.09-2.38,4.33-3.64,6.47-3.56,6.05-7.53,11.79-11.8,17.34-2.65,3.44-5.55,6.67-8.23,10.05-3.9,4.92-8.35,9.27-12.93,13.43-5.16,4.69-10.49,9.21-16.25,13.25-4.44,3.11-9.12,5.91-13.38,9.2-4.22,3.26-8.75,5.99-13.1,9.01-4.21,2.92-8.75,5.38-12.83,8.47-9.18,6.93-19.12,12.72-28.46,19.38-5.18,3.69-10.67,6.9-15.61,10.93-9.74-6.56-19.14-13.35-28.98-19.5-6.61-4.13-12.85-8.84-19.27-13.27-5.33-3.67-10.65-7.35-16.02-10.97-3.16-2.13-6.54-3.96-9.54-6.3-3.05-2.38-6.4-4.29-9.46-6.68-4.35-3.41-8.63-6.89-12.91-10.38-4.64-3.78-8.84-7.98-12.85-12.33-4.92-5.34-9.59-10.9-13.85-16.84-2.78-3.88-5.48-7.82-8.14-11.78-4.42-6.6-8.33-13.56-11.5-20.82-2.37-5.43-4.76-10.9-6.63-16.55-1.51-4.55-3.26-9.05-4.34-13.71-.56-2.43-1.1-4.83-1.81-7.23-.68-2.28-.29-4.89-1-7.15-1.25-3.93-.79-8.17-2.43-11.99-.05-.12-.02-.28,0-.42.63-4.83-1.25-9.52-.83-14.34.31-3.58-1.47-6.97-.85-10.56-1.45-2.27-.84-4.8-.79-7.2.11-5.09-1.49-10.07-.89-15.18-1.49-2.85-.7-5.91-.81-8.88-.08-2.16-1.21-4.1-.95-6.37.22-1.95.64-4.11-.74-5.95-.13-.18-.05-.55-.01-.83.58-4.69-.65-9.29-1.02-13.9-.32-3.95-.16-7.96-.82-11.81-.45-2.58-.19-5.18-.76-7.63-.9-3.81-.27-7.68-.9-11.4-.43-2.57-.61-5.09-.71-7.71,7.12-3.68,14.05-7.74,21.14-11.52,5.39-2.87,10.68-5.97,16.04-8.92,5.81-3.19,11.76-6.12,17.46-9.49,5.38-3.19,10.9-6.11,16.36-9.16,5.67-3.17,11.49-6.07,17.13-9.28,6.1-3.48,12.27-6.81,18.47-10.1,5.62-2.99,11.14-6.18,16.74-9.23,5.59-3.05,11.14-6.19,16.75-9.2,5.72-3.07,11.41-6.21,17.09-9.35,3.86-2.14,7.98-3.92,11.41-6.71,7.62,3.81,14.78,8.04,22.07,12.02,5.82,3.18,11.73,6.27,17.35,9.86,4.13,2.64,8.95,4.21,13.05,6.89,4.07,2.65,8.56,4.46,12.6,7.17,4.08,2.73,8.72,4.6,13,7.04,3.74,2.13,7.71,3.83,11.22,6.38.92.67,2.1,1,3.14,1.51,7.21,3.58,14.1,7.77,21.23,11.52,5.4,2.84,10.67,5.99,16.04,8.92,5.81,3.17,11.62,6.36,17.44,9.51,5.83,3.15,11.53,6.56,17.46,9.52,1.39.7,2.68,1.62,4.28,2.6-.39,2.13.69,4.59-.82,6.9ZM405.9,138.47c.18-2.78-1.15-4.53-3.55-6.15-3.28-2.22-6.93-3.66-10.24-5.76-5.28-3.35-10.96-6-16.34-9.19-5.69-3.38-11.7-6.23-17.45-9.51-5.32-3.03-10.71-5.94-16.05-8.9-6.47-3.59-12.97-7.14-19.5-10.63-1.48-.79-3.22-1.17-4.56-2.13-5.77-4.11-12.37-6.76-18.29-10.6-2.71-1.75-5.86-2.81-8.58-4.55-2.76-1.77-6.12-2.48-8.47-4.92-6.91-3.07-13.2-7.27-19.9-10.73-1.4-.72-2.73-1.58-4.09-2.29-2.86-1.51-5.61-3.81-9.33-2.81-4.55,2.57-8.84,5.05-13.18,7.43-5.69,3.12-11.51,6.03-17.13,9.28-5.41,3.13-10.99,5.95-16.37,9.14-5.69,3.38-11.69,6.23-17.45,9.52-5.31,3.04-10.69,5.97-16.06,8.89-7.07,3.85-14.07,7.85-21.22,11.54-1.03.53-2.2.86-3.14,1.51-3.54,2.48-7.47,4.26-11.23,6.34-4.2,2.32-8.47,4.56-12.66,6.87-4.78,2.64-9.57,5.32-14.29,8.1-2.23,1.31-4.7,2.24-6.87,3.64-1.44.93-2.74,2.34-2.86,4.22-.14,2.23-.55,4.65.12,6.66.6,1.78.49,3.44.7,5.16.21,1.71.64,3.4.8,5.11.28,3.1.09,6.18.69,9.33.74,3.82.51,7.86.83,11.81.37,4.62,1.6,9.21,1.02,13.91-.03.28-.12.64.01.83,1.45,1.99.57,4.25.83,6.38.26,2.12.68,4.24.81,6.37.35,5.61.58,11.24.86,16.86.01.28-.12.67.02.82,1.51,1.68.89,3.73.73,5.54-.18,2.01.9,3.64.96,5.53.12,3.67,0,7.3.62,11.02.6,3.56,1.64,7.21,1.06,10.96-.09.61.2,1.29.4,1.92.7,2.23,1.46,4.49,1.94,6.72.55,2.57,1.26,5.16,1.53,7.76.29,2.82,1.56,5.29,2.31,7.9,2.01,7.08,4.91,13.9,8.12,20.53,2.67,5.5,5.41,10.96,8.85,16.09,2.28,3.39,4.6,6.78,6.78,10.2,3.2,5.02,7.01,9.53,10.92,13.86,7.2,7.99,15.04,15.4,23.54,22.04,1.37,1.07,2.68,2.24,4.16,3.13,8.69,5.28,16.79,11.42,25.24,17.05,6.48,4.32,13.01,8.56,19.34,13.12,8.01,5.77,16.39,11.04,24.6,16.55,2.94,1.97,5.94,3.65,9.73,2.64.35-.35.7-.82,1.15-1.13,5.13-3.48,10.31-6.88,15.4-10.41,6.52-4.51,13.3-8.62,19.65-13.4,4.52-3.4,9.41-6.29,14.12-9.44,4.93-3.29,9.85-6.61,14.78-9.92,7.09-4.77,14.23-9.54,20.44-15.39,5.93-5.59,11.93-11.17,17.08-17.6,3.02-3.78,5.97-7.58,8.91-11.41,4.51-5.89,8.08-12.3,11.75-18.67,1.94-3.37,3.96-6.77,5.23-10.41.74-2.13,2.05-3.96,2.59-6.06.56-2.17,1.5-4.14,2.25-6.21,1.41-3.9,2.61-7.89,3.67-11.9.74-2.8,1.74-5.57,1.73-8.52,2.47-4.09,2.24-8.9,3.16-13.34,1.1-5.31.76-10.92,1.03-16.4.05-.98-.4-2.31.08-2.87,1.42-1.66.46-3.47.76-5.17.3-1.7.71-3.4.82-5.11.35-5.76.59-11.52.86-17.28.01-.28-.12-.66.02-.82,1.4-1.69.6-3.69.83-5.54.25-1.99.64-3.96.81-5.95.29-3.24.06-6.45.7-9.75.91-4.66.84-9.53.96-14.31.11-4.24,1.48-8.38.88-12.66-.02-.14-.06-.32,0-.41,1.51-2.12.58-4.53.83-6.79.27-2.4.65-4.8.81-7.21ZM391.63,148.37c-.15,2.27-.64,4.52-.78,6.79-.14,2.37.45,4.88-.16,7.1-.67,2.44-.2,4.93-.81,7.21-.99,3.68-.22,7.4-.84,10.99-.61,3.54-.19,7.15-.91,10.54-.53,2.46-.42,4.84-.68,7.24-.19,1.71-.66,3.4-.79,5.11-.14,1.81.48,3.84-.15,5.4-.99,2.45-.54,4.84-.72,7.25-.28,3.94-1.32,7.83-.84,11.82-1.57,3.13-.4,6.5-.88,9.72-.65,4.46-.6,9.04-2.16,13.36-.22.61-.34,1.32-.3,1.97.16,2.6-.69,4.96-1.49,7.37-.63,1.89.23,4.02-1.01,5.89-.7,1.05-.97,2.38-1.64,4.1.72,2.42-1.3,4.75-2.18,7.32-2.96,8.72-6.85,17.05-11.36,25.08-2.77,4.94-5.86,9.67-9.3,14.21-3.76,4.97-7.55,9.87-11.81,14.44-1.64,1.76-3.01,3.91-4.88,5.46-6.73,5.58-12.91,11.79-20.36,16.57-3.99,2.55-7.83,5.42-11.79,8.08-3.93,2.64-8.06,5.03-11.83,7.83-9.97,7.43-20.6,13.85-30.81,20.9-3.5,2.42-6.92,4.94-10.05,7.18-2.56,1.54-3.59-1.16-5.42-1.34-4.31-4.23-9.8-6.81-14.61-10.34-5.33-3.9-11.1-7.15-16.34-11.24-4.76-3.72-10.02-6.8-15.06-10.16-5.04-3.36-10.09-6.72-15.12-10.09-4.02-2.69-7.81-5.66-11.47-8.84-4.01-3.48-8.49-6.47-11.95-10.49-4.83-5.61-9.8-11.1-14.17-17.14-3.34-4.62-6.52-9.34-9.53-14.15-2.47-3.93-4.27-8.28-6.27-12.49-2.28-4.79-4.17-9.73-5.98-14.73-1.33-3.67-2.27-7.44-3.56-11.11-.04-.12-.28-.2-.28-.3-.04-3.08-1.08-5.94-1.92-8.86-.79-2.79-.48-5.81-1.7-8.53-.1-.23-.04-.56,0-.83.57-4.69-.59-9.3-1.03-13.9-.42-4.38-.55-8.73-.65-13.1-.04-1.61-1.15-2.95-.91-4.7.2-1.41.48-3.01-.75-4.29-.21-.22-.07-.81-.02-1.23.59-5.25-.56-10.42-1.03-15.58-.35-3.81-.04-7.71-.81-11.39-.66-3.15-.6-6.22-.65-9.33-.03-1.9-1.27-3.51-.93-5.54.3-1.77.51-3.78-.04-5.41-.87-2.57-.11-5.27-.85-7.62-1.34-4.25-.18-8.45-.87-12.66,2.36-1.36,4.49-2.63,6.66-3.83,4.43-2.47,8.89-4.89,13.32-7.35,5-2.78,9.89-5.8,15.02-8.33,6.52-3.22,12.75-6.97,19.21-10.31,5.29-2.73,10.54-5.7,15.68-8.77,6.49-3.88,13.35-7.07,19.75-11.13,4.14-2.63,8.78-4.46,13.1-6.81,3.67-1.99,7.2-4.24,10.81-6.33,1-.58,2.12-.97,3.15-1.5,7.17-3.66,13.92-8.11,21.26-11.48.82-.38,1.47-1.13,2.41-1.88,3.29,2.86,7.63,3.93,11.05,6.64.89.7,2.09,1,3.14,1.52,7.22,3.57,14.08,7.8,21.24,11.5,5.3,2.74,10.54,5.68,15.69,8.73,6.51,3.85,13.29,7.19,19.78,11.09,3.54,2.12,7.2,4.16,10.92,6.01,4.55,2.27,9.04,4.62,13.29,7.44,1.17.78,2.56,1.24,3.84,1.86,7.02,3.39,13.63,7.52,20.58,11.07,5.65,2.89,11.07,6.3,16.8,9.11,1.42.7,2.63,1.8,3.84,2.65,0,2.35.11,4.46-.03,6.55Z"/>
  <g>
    <path class="cls-4" d="M330.57,130.46c-1.28-1.45-2.81-2.48-4.89-2.34-.7.05-1.4,0-2.1,0-48.07,0-96.13.03-144.2-.05-3.88,0-6.88.88-8.48,5.1v15.09h161.15v-15.33c-.54-.93-.9-1.81-1.49-2.49Z"/>
    <path class="cls-1" d="M159.23,153.15h13.3v-15.09c1.59-4.22,4.59-5.11,8.48-5.1,48.07.08,96.13.05,144.2.05.7,0,1.4.04,2.1,0,2.08-.15,3.61.89,4.89,2.34.59.68.95,1.56,1.49,2.49v15.33h13.43c0-5.17-.23-10.06.09-14.92.19-2.89-1.69-4.98-2.03-7.59-3.24-3.91-5.9-8.48-11.41-9.77-.85-.2-1.61-.84-2.43-1.29-50.6,0-101.23.02-151.85-.03-4.13,0-7.81,1.18-11.17,3.42-1.35.9-2.51,2.12-3.68,3.28-3.67,3.64-5.48,8.08-5.51,13.23-.02,3.5-.01,6.99,0,10.49,0,1.07.08,2.13.12,3.18Z"/>
  </g>
  <g>
    <path class="cls-4" d="M172.4,323.92c1.28,1.45,2.81,2.49,4.89,2.34.69-.05,1.4,0,2.1,0,48.07,0,96.13-.03,144.2.05,3.88,0,6.89-.88,8.48-5.1v-15.09h-161.15v15.33c.54.93.9,1.81,1.49,2.49Z"/>
    <path class="cls-1" d="M332.06,306.11v15.09c-1.59,4.22-4.59,5.11-8.48,5.1-48.07-.08-96.13-.05-144.2-.05-.7,0-1.4-.04-2.1,0-2.08.15-3.61-.89-4.89-2.34-.59-.67-.95-1.56-1.49-2.49v-15.33h-13.43c0,4.61.03,8.93,0,13.25-.03,3.96,1.1,7.47,3.27,10.84,1,1.55,2.24,2.74,3.46,3.99,3.6,3.71,8.07,5.5,13.23,5.5,49.23,0,98.46-.01,147.69.03,4.13,0,7.83-1.16,11.17-3.43,1.58-1.07,2.87-2.56,4.29-3.86,2.32-2.13,3.36-5.01,4.39-7.83.5-1.35.48-2.93.5-4.4.06-3.64.03-7.27.02-10.91,0-1.07-.08-2.13-.12-3.18h-13.3Z"/>
  </g>
  <g>
    <g>
      <rect class="cls-2" x="170.91" y="258.96" width="161.15" height="45.41"/>
      <rect class="cls-5" x="177.69" y="251.9" width="147.59" height="7.06"/>
      <ellipse class="cls-3" cx="192.71" cy="282.48" rx="4.23" ry="3.43"/>
      <path class="cls-7" d="M212.37,286.45c-2.69,0-4.89-1.78-4.89-3.97s2.19-3.97,4.89-3.97,4.89,1.78,4.89,3.97-2.19,3.97-4.89,3.97ZM212.37,279.58c-1.97,0-3.57,1.3-3.57,2.9s1.6,2.9,3.57,2.9,3.57-1.3,3.57-2.9-1.6-2.9-3.57-2.9Z"/>
      <g>
        <path class="cls-7" d="M318.26,275.33h-69.02v-5.71h69.02v5.71ZM250.55,274.26h66.39v-3.58h-66.39v3.58Z"/>
        <path class="cls-7" d="M318.26,285.34h-69.02v-5.71h69.02v5.71ZM250.55,284.27h66.39v-3.58h-66.39v3.58Z"/>
        <path class="cls-7" d="M318.26,295.35h-69.02v-5.71h69.02v5.71ZM250.55,294.28h66.39v-3.58h-66.39v3.58Z"/>
      </g>
    </g>
    <g>
      <rect class="cls-2" x="170.91" y="206.49" width="161.15" height="45.41"/>
      <rect class="cls-5" x="177.69" y="199.43" width="147.59" height="7.06"/>
      <ellipse class="cls-3" cx="192.71" cy="230.02" rx="4.23" ry="3.43"/>
      <path class="cls-7" d="M212.37,233.98c-2.69,0-4.89-1.78-4.89-3.97s2.19-3.97,4.89-3.97,4.89,1.78,4.89,3.97-2.19,3.97-4.89,3.97ZM212.37,227.12c-1.97,0-3.57,1.3-3.57,2.9s1.6,2.9,3.57,2.9,3.57-1.3,3.57-2.9-1.6-2.9-3.57-2.9Z"/>
      <g>
        <path class="cls-7" d="M318.26,222.87h-69.02v-5.71h69.02v5.71ZM250.55,221.8h66.39v-3.58h-66.39v3.58Z"/>
        <path class="cls-7" d="M318.26,232.87h-69.02v-5.71h69.02v5.71ZM250.55,231.8h66.39v-3.58h-66.39v3.58Z"/>
        <path class="cls-7" d="M318.26,242.88h-69.02v-5.71h69.02v5.71ZM250.55,241.81h66.39v-3.58h-66.39v3.58Z"/>
      </g>
    </g>
    <g>
      <rect class="cls-2" x="170.91" y="154.02" width="161.15" height="45.41"/>
      <path class="cls-3" d="M196.94,177.55c0,1.9-1.89,3.43-4.23,3.43s-4.23-1.54-4.23-3.43,1.89-3.43,4.23-3.43,4.23,1.54,4.23,3.43Z"/>
      <path class="cls-7" d="M212.37,181.52c-2.69,0-4.89-1.78-4.89-3.97s2.19-3.97,4.89-3.97,4.89,1.78,4.89,3.97-2.19,3.97-4.89,3.97ZM212.37,174.65c-1.97,0-3.57,1.3-3.57,2.9s1.6,2.9,3.57,2.9,3.57-1.3,3.57-2.9-1.6-2.9-3.57-2.9Z"/>
      <g>
        <path class="cls-7" d="M318.26,170.4h-69.02v-5.71h69.02v5.71ZM250.55,169.33h66.39v-3.58h-66.39v3.58Z"/>
        <path class="cls-7" d="M318.26,180.41h-69.02v-5.71h69.02v5.71ZM250.55,179.34h66.39v-3.58h-66.39v3.58Z"/>
        <path class="cls-7" d="M318.26,190.41h-69.02v-5.71h69.02v5.71ZM250.55,189.34h66.39v-3.58h-66.39v3.58Z"/>
      </g>
    </g>
  </g>
</svg>